<svg width="512" height="512" viewBox="0 0 512 512" fill="none" xmlns="http://www.w3.org/2000/svg">
  <defs>
    <linearGradient id="grad1" x1="0%" y1="0%" x2="100%" y2="100%">
      <stop offset="0%" style="stop-color:#3B82F6;stop-opacity:1" />
      <stop offset="100%" style="stop-color:#8B5CF6;stop-opacity:1" />
    </linearGradient>
  </defs>
  
  <!-- Background circle -->
  <circle cx="256" cy="256" r="240" fill="url(#grad1)" stroke="#1F2937" stroke-width="16"/>
  
  <!-- Brain/Neural Network representation -->
  <g fill="white" opacity="0.9">
    <!-- Central nodes -->
    <circle cx="256" cy="200" r="20"/>
    <circle cx="256" cy="312" r="20"/>
    <circle cx="200" cy="256" r="20"/>
    <circle cx="312" cy="256" r="20"/>
    
    <!-- Connection lines -->
    <path d="M 256 180 L 256 292" stroke="white" stroke-width="4" opacity="0.6"/>
    <path d="M 180 256 L 292 256" stroke="white" stroke-width="4" opacity="0.6"/>
    <path d="M 220 220 L 292 292" stroke="white" stroke-width="3" opacity="0.4"/>
    <path d="M 292 220 L 220 292" stroke="white" stroke-width="3" opacity="0.4"/>
    
    <!-- Additional neural connections -->
    <circle cx="180" cy="180" r="12"/>
    <circle cx="332" cy="180" r="12"/>
    <circle cx="180" cy="332" r="12"/>
    <circle cx="332" cy="332" r="12"/>
    
    <!-- Security shield overlay -->
    <path d="M 256 120 L 320 160 L 320 240 L 256 280 L 192 240 L 192 160 Z" 
          fill="none" stroke="white" stroke-width="6" opacity="0.8"/>
  </g>
  
  <!-- Enterprise text -->
  <text x="256" y="420" text-anchor="middle" fill="white" font-family="Arial, sans-serif" 
        font-size="24" font-weight="bold" opacity="0.9">IDS</text>
</svg>
